<?xml version="1.0" encoding="utf-8"?>
<!-- Generator: Adobe Illustrator 23.0.6, SVG Export Plug-In . SVG Version: 6.00 Build 0)  -->
<svg version="1.1" id="Capa_1" xmlns="http://www.w3.org/2000/svg" xmlns:xlink="http://www.w3.org/1999/xlink" x="0px" y="0px"
	 viewBox="0 0 761.8 207.6" style="enable-background:new 0 0 761.8 207.6;" xml:space="preserve">
<style type="text/css">
	.st0{fill:#E7C4AE;}
	.st1{fill:#A8CAE7;}
	.st2{fill:#F0E9B5;}
	.st3{fill:#B9CEB7;}
	.st4{fill:#BFB7D3;}
	.st5{fill:#ECC7AA;}
	.st6{fill:#B1C8AE;}
	.st7{fill:#B5D3EB;}
	.st8{fill:#EEB8A0;}
	.st9{fill:#E9C3D0;}
	.st10{fill:#616160;}
	.st11{fill:#9BA3AA;}
	.st12{opacity:0.2;}
	.st13{fill:#D11317;}
	.st14{fill:#FFFFFF;}
</style>
<g>
	<g>
		<polygon class="st0" points="62.8,91.6 70.2,98.5 199.5,107.2 200.9,77.8 183.8,75.8 184.3,69.2 182.5,61.5 171.1,23 		"/>
		<path class="st1" d="M24.2,120.2l0.8-9.3l6.8-4.8c0,0,9.6-1.8,19.4,0c9.8,1.8,58,5.9,58,5.9l59.4-2.2l-4.2,29.7l0.2,19.2l-9.1,3.8
			l-79.3,15.1l-56-2.8c0,0-9.3-1.1-12.9-4.5l94.5-21.1l-3.2-24.4L24.2,120.2z"/>
		<path class="st2" d="M186.3,41.3c0,0-0.1,6.2,0,7.3c0.1,1.1,5.2,15,5.2,15l-1.3,13l10.6,1.2l-1.4,29.4c0,0,92,3.3,97.2,3.2
			c5.2-0.1,83.7-1.6,104,6.8c0,0,6.1-21,5.6-21.1c-0.6-0.1-3.4-9.3,2-20.7c0,0-8.6-1-51.1,2l-21.8,0.4l-58.6-1.9l-2.9-5.6l-64.2-1
			l0.6-11.7l9.8-19.2l24.4-17.1l-9.1,1.4L186.3,41.3z"/>
		<path class="st3" d="M256.1,147.9l-3.2,18.7l-39.1-5.1l-49.1,0.9l-0.2-22.8l4.2-29.7l106.5,2.9l68.4-2.1l-9,21.7
			c0,0,1.1,7.4,2.1,8.6s0,12.7,0,12.7L256.1,147.9z"/>
		<path class="st4" d="M343.5,110.6c0,0,82.8,0,95.5,47.9l-54.8-3.3l-47.4-3.6l0.2-3.6l0.1-4.6c0,0,0-2.2-0.4-2.6s-1.5-4.2-1.5-5.2
			l-0.6-3.4L343.5,110.6z"/>
		<path class="st5" d="M256.1,147.9l-3.2,18.7l62.2,1.2l1.2,5l93.2,17.9l34.2,1.1l-7.7-33.4c0,0-87.8-6.7-99.2-6.7l-0.2,2
			L256.1,147.9z"/>
		<path class="st6" d="M412.5,61.3l-4.2,14c0,0-5.6,10.7-2,20.7l-5.6,21.1c0,0,21.3,7.6,30.9,17.5l108.3,4.6c0,0-12.9-20,11-25.9
			l2.7-43.1L412.5,61.3z"/>
		<polygon class="st7" points="430.8,6.9 429.1,62.4 488,65.6 492.9,12.4 		"/>
		<path class="st8" d="M543.5,166l-1.2-23.9c0,0-0.8-2.9-2.5-2.9c-1.7,0-108.3-4.6-108.3-4.6l-3.4,4.3c0,0,23.6,17,26.1,48.8
			l27.3,2.9l55,1.1v-25.3L543.5,166z"/>
		<polygon class="st9" points="543.5,166 707,174.8 707,178.9 728.4,180.2 727.4,189.8 592.1,189.8 536.6,191.8 536.6,166.5 		"/>
		<g>
			<path class="st10" d="M92.6,85.2h-5.9l0.1-0.4c0.2-0.6,0.3-1.3,0.2-1.5c-1-0.1-7.9-1-9.2-1.1l-1.6,1.2l-3.1-0.9
				c-0.1-0.1-0.3-0.2-0.3-0.4c0-0.2,0.1-0.4,0.4-0.6l0,0l14.8-9c0,0,1.2-0.4,2.1,0.2c0.5,0.3,0.7,0.9,0.7,1.7v7.5h1.8V85.2z
				 M87.6,84.5H92v-2.1h-1.8v-8.2c0-0.6-0.1-0.9-0.4-1.2c-0.5-0.4-1.3-0.2-1.4-0.1l-14.6,8.9l2.4,0.7l1.6-1.1l0.1,0
				c3.6,0.5,9,1.2,9.4,1.2c0.2,0,0.3,0.1,0.4,0.2C87.9,83.1,87.8,83.9,87.6,84.5z"/>
		</g>
		<g>
			<path class="st10" d="M171.7,81.7L171.7,81.7l-24.8-1l-0.1-0.1c-2.9-2.7-5.4-0.1-5.5,0l-0.1,0.1l-0.2,0c-0.4,0-43.3-2.8-45.1-2.8
				c-1,0-1.9-0.4-2.5-1.2c-0.6-0.7-1.1-2-0.5-4.3c0.9-3.4,9-4,9.8-4.1c4.4-2.2,11.7-4.2,21.2-1.5c2.5,0.7,26.6,2.5,30.2,2.5
				c3.1,0,4,2.1,4.2,2.9c1.8,0.1,12.1,0.4,13.3,0.4c1.3,0,1.8,1.2,1.9,1.9c0,0.1-0.3,4.3-0.3,5.4C173.4,81.2,171.8,81.7,171.7,81.7
				L171.7,81.7z M147.2,80.1l24.4,1c0.2-0.1,1.2-0.5,1.2-1.2c0-1.1,0.3-4.9,0.3-5.4c0-0.2-0.3-1.3-1.3-1.3c-1.4,0-13.1-0.3-13.6-0.4
				l-0.3,0l0-0.3c0-0.1-0.4-2.6-3.6-2.6c-3.5,0-27.8-1.9-30.3-2.6c-9.4-2.6-16.5-0.6-20.8,1.5l-0.1,0c-2.4,0.1-8.7,1-9.3,3.6
				c-0.4,1.5-0.2,2.9,0.4,3.7c0.5,0.6,1.2,0.9,1.9,0.9c1.8,0,41.7,2.6,45,2.8c0.3-0.3,1.5-1.3,3-1.3
				C145.1,78.7,146.1,79.2,147.2,80.1z"/>
		</g>
		<g>
			<path class="st10" d="M169.2,69.6c-6.6,0-47-7.1-48.7-7.4c-0.1,0-2.3-0.8-2.5-2.4c-0.1-1.1,0.6-2.2,2.3-3.4l31.1-21.6
				c0.2-0.2,5.2-5.1,9-4.3c1.4,0.3,2.5,1.4,3.1,3.3c2.7,7.7,10,30,10.1,30.3c0,0,1,2.2,0,3.8C173,69,171.5,69.6,169.2,69.6z
				 M120.8,56.9c-1.5,1-2.2,2-2.1,2.8c0.1,1,1.5,1.7,2,1.9c0.4,0.1,42,7.3,48.5,7.3c2,0,3.3-0.5,3.9-1.4c0.8-1.3-0.1-3.2-0.1-3.2
				C173,64,165.6,41.7,163,34c-0.6-1.6-1.5-2.6-2.7-2.9c-3.4-0.8-8.3,4.1-8.4,4.1L120.8,56.9z"/>
		</g>
		<g>
			<path class="st10" d="M137.6,93.9l-11.1-1.7v-3.6l-3.7-0.5l-0.5,2.4l-16.2-1.7l1.7-9l13.9,1.9l48.7,1.1l4.6,2.5v4.5l-3.1,2.5
				l-0.1,0l-21.5,0.6l-3.6-3.7l-6,0.1L137.6,93.9z M127.2,91.6l10.1,1.5l3.1-4.5l6.7-0.1l3.6,3.7l21.1-0.6l2.7-2.2v-3.7l-4.1-2.3
				l-48.5-1.1l-13.4-1.8l-1.5,7.7l14.9,1.5l0.5-2.4l4.8,0.6V91.6z"/>
		</g>
		<g>
			<path class="st10" d="M210,86.1H187c-4-0.5-9.9-1.2-10.4-1.2c-0.8,0-1.6-1.1-1.8-1.4l-0.1-0.1v-4.3c0-0.4,0.1-0.7,0.4-0.9
				c0.5-0.4,1.3-0.4,1.5-0.3l35.7,0.9v5C212.3,85.3,210.2,86.1,210,86.1L210,86.1z M175.4,83.2c0.3,0.4,0.9,1,1.2,1
				c0.6,0,9.4,1.1,10.4,1.2l22.9,0c0.5-0.2,1.7-0.9,1.7-1.7v-4.3l-35.1-0.8c-0.2,0-0.7,0-1,0.2c-0.1,0.1-0.2,0.2-0.2,0.4V83.2z"/>
		</g>
		<g>
			<path class="st10" d="M202.1,77l-24.6-1.2v-4.1h0.7v3.4l23.3,1.1V62.1l4.4-1.3c0,0,1.3-0.3,1.3-1.3c0-1.2-0.8-6.9-0.8-7l-5-16.9
				l-26.4,10.8c0,0-1.6,0.8-3,0.3c-0.7-0.2-1.1-0.7-1.4-1.5c-1-2.4-3.6-10.8-3.7-11.1c-0.6-1.1-1.2-3.7,0.8-4.8l0.3,0.6
				c-2,1.1-0.6,3.9-0.5,4c0,0.1,2.7,8.7,3.7,11.1c0.2,0.6,0.6,0.9,1.1,1.1c1.1,0.4,2.4-0.2,2.5-0.2l27.1-11.1l5.2,17.7
				c0,0.3,0.9,5.9,0.9,7.1c0,1.5-1.7,1.9-1.8,1.9l-4,1.2V77z"/>
		</g>
		<g>
			<polygon class="st10" points="263.5,72.1 262.6,70 213,66.2 213.1,58.1 221.2,40.1 221.3,40.1 233.8,29.2 243.3,21.8 235.5,23 
				201.6,35.4 201.4,34.8 235.4,22.4 245.7,20.8 234.2,29.7 221.8,40.5 213.7,58.3 213.7,65.6 263.1,69.4 264.1,71.9 			"/>
		</g>
		<g>
			<path class="st10" d="M335.1,78.1c-1.3,0-2.3,0-3.1,0c-5.6-0.1-54.8-1.9-55.3-1.9l-0.2,0l-2.9-5.6h-8.1l-0.9-2.7l0.6-0.2l0.8,2.2
				h8l2.9,5.6c3.4,0.1,49.7,1.8,55.1,1.9c5.8,0.1,27.8-0.3,30.9-0.7c2.4-0.3,41.2-2.5,45.2-1.7l8.2-4.9l1.1-6.5l0.6,0.1l-1.2,6.8
				l-8.7,5.2l-0.1,0c-2.9-0.8-41.3,1.2-45.1,1.7C360.1,77.7,343.2,78.1,335.1,78.1z"/>
		</g>
		<g>
			
				<rect x="228.6" y="50.6" transform="matrix(4.092786e-02 -0.9992 0.9992 4.092786e-02 141.8229 303.3042)" class="st10" width="0.7" height="54.4"/>
		</g>
		<g>
			<path class="st10" d="M267.9,90.9h-15.7c-0.7,0-1.4-0.1-2.2-0.4c-6-2.1-30.2-3.4-33.4-3.4c-3.2,0-3.2-2-3.2-2v-3.9
				c0-0.8,0.3-1.4,0.8-1.9c1.5-1.3,4.7-0.8,4.9-0.8l44.7,2.3h2.3c1.4,0,1.8,1.2,1.8,1.8V90.9z M217.6,79.1c-1,0-2.2,0.1-2.9,0.7
				c-0.4,0.3-0.6,0.8-0.6,1.4v3.9c0,0.1,0.1,1.4,2.5,1.4c2.6,0,27.2,1.2,33.6,3.4c0.7,0.2,1.4,0.4,2,0.4h15.1v-7.6
				c0-0.1,0-1.1-1.1-1.1l-2.3,0l-44.7-2.3C219,79.2,218.4,79.1,217.6,79.1z"/>
		</g>
		<g>
			<path class="st10" d="M218.9,98c-4.3-1.5-23.5-1.2-29.8-1.1c-1,0-1.7,0-2.1,0c-2.7,0-11.2-2.6-11.5-2.7l-0.2-0.1l-0.9-9l0.5,0.1
				c0.1,0,10.5,2.9,15.9,2.9c5.3,0,31.9,0.3,32.1,0.3l14.1,0.9l1.8,3l-0.6,0.3l-1.6-2.7l-13.7-0.9c-0.2,0-26.8-0.3-32.1-0.3
				c-4.8,0-13.4-2.2-15.6-2.8l0.8,7.6c1.3,0.4,8.8,2.6,11.1,2.6c0.3,0,1.1,0,2,0c7-0.1,25.7-0.4,30,1.2L218.9,98z"/>
		</g>
		<g>
			<path class="st10" d="M239.7,91.9v-0.7c0.5,0,0.9-0.1,1.1-0.4c0.1-0.1,0.1-0.2,0.1-0.3l-4.3-0.6l0.1-0.7l4.8,0.7l0,0.2
				c0,0,0.1,0.6-0.3,1.1C241,91.7,240.4,91.9,239.7,91.9z"/>
		</g>
		<g>
			
				<rect x="245.7" y="86.2" transform="matrix(0.1362 -0.9907 0.9907 0.1362 122.3948 322.2935)" class="st10" width="0.7" height="9.6"/>
		</g>
		<g>
			<path class="st10" d="M330.6,102.7H330V91.5l-1.3-0.6c-3.8-1.6-41-0.5-53.3-0.1c-2.2,0.1-3.5,0.1-3.8,0.1c-1.9,0-2.4-1.4-2.4-2.2
				l0.5-16.3h2.2v5c3.8,0.3,41,2.8,46.9,2.6c6.2-0.1,61.2,0.1,61.8,0.1c0,0,8.6-1.1,10.3-1.6c1.7-0.5,17.6-0.1,18.2-0.1l7.6,0.3
				l0,0.3c0,0.4,0.2,8.6-3.6,8.9l-3.9,0l0-0.7l3.9,0c2.5-0.2,3-5.6,3-8l-7-0.3c-4.5-0.1-16.7-0.3-18,0.1c-1.7,0.5-10.1,1.6-10.4,1.6
				c0,0,0,0,0,0c-0.7,0-55.7-0.2-61.8-0.1c-6.2,0.1-46.8-2.6-47.2-2.7l-0.3,0v-5h-0.9l-0.5,15.7c0,0.1,0.1,1.5,1.8,1.5
				c0.3,0,1.7,0,3.8-0.1c12.3-0.4,49.6-1.6,53.5,0.1l1.7,0.8V102.7z"/>
		</g>
		<g>
			<rect x="332" y="93.7" class="st10" width="0.7" height="9"/>
		</g>
		<g>
			<rect x="336.3" y="94.2" class="st10" width="0.7" height="9"/>
		</g>
		<g>
			<polygon class="st10" points="278.6,98.6 277.9,98.6 277.9,94.8 279.7,94.8 279.7,91.9 330.3,91.9 330.3,92.6 280.4,92.6 
				280.4,95.4 278.6,95.4 			"/>
		</g>
		<g>
			<path class="st10" d="M28.1,99.4c-0.6,0-1,0-1.1,0l0-0.7c0.1,0,9.3,0.5,14.6-3.7l0.4,0.5C37.5,99,30.7,99.4,28.1,99.4z"/>
		</g>
		<g>
			<path class="st10" d="M68.5,154.8l-0.1-0.7c0.3-0.1,34.1-5.1,38.1-5.7c1.3-0.2,2.2-0.9,2.8-2.2c0.8-1.8,0.7-3.9,0.6-4.2
				c-0.5-0.8-1.6-9.6-1.3-11.5c0.3-1.8,0-4.6-5.5-8.4c-5.3-3.7-16.3-2.6-16.5-2.6l-5.2,0.1l-0.1-0.1c-4.1-2.5-7.8,2.4-7.8,2.5
				l-0.1,0.1l-7.7-0.7l-0.1-0.1c-9.3-7-19.8-1.6-19.9-1.5l-0.1,0.1l-4.1-0.6l1-19.5c-2.5,1.4-10.7,2-12.5,2.2l0-0.7
				c4.5-0.3,11.9-1.3,12.6-2.4l0.7-1.2l-1.1,21l3.3,0.5c1.1-0.6,11.2-5.2,20.4,1.6l7.2,0.7c0.7-0.9,4.4-5,8.5-2.5l5-0.1
				c0.4,0,11.3-1.1,16.9,2.7c5.8,4,6.1,7.1,5.8,9.1c-0.3,2,0.9,10.4,1.2,11.1c0.3,0.6,0.4,3-0.5,4.8c-0.7,1.5-1.9,2.4-3.4,2.6
				C102.6,149.7,68.8,154.7,68.5,154.8z"/>
		</g>
		<g>
			<path class="st10" d="M69.6,157.1l-0.1-0.7c0.3,0,34.6-3.8,39.4-5.5c0.9-0.3,1.6-0.9,1.9-1.8c1.1-2.7-1-7.1-1-7.1l0.6-0.3
				c0.1,0.2,2.2,4.7,1,7.6c-0.4,1-1.2,1.8-2.3,2.1C104.3,153.2,71,156.9,69.6,157.1z"/>
		</g>
		<g>
			<path class="st10" d="M62.9,116.7c-0.8,0-1.6-0.2-1.6-0.2l-0.1,0l-0.1-0.1c-0.9-2.1-11.8-3.1-18.9-3.2l0-0.7
				c1.8,0,17.6,0.4,19.4,3.4c0.6,0.2,1.9,0.4,2.5-0.2c0.3-0.3,0.5-0.7,0.4-1.2l0.7,0c0,0.8-0.2,1.4-0.7,1.8
				C64.1,116.6,63.5,116.7,62.9,116.7z"/>
		</g>
		<g>
			<path class="st10" d="M112.1,126.7c-1.1,0-2-0.6-2-0.7l-5.7-5.3l0.4-0.5l5.7,5.3c0,0,0,0,0,0c0,0,1.2,0.9,2.3,0.4
				c0.9-0.4,1.5-1.7,1.6-3.8c0.1-1.5-0.2-2.6-1.1-3.4c-2.2-2-6.8-1.1-6.8-1.1l-0.1,0l-0.1,0c-0.2,0-5.5-0.7-8.4-1.7
				c-2.9-1-34.9-1-35.2-1l0-0.7c1.3,0,32.5,0,35.4,1c2.8,0.9,7.7,1.6,8.3,1.7c0.6-0.1,5-0.8,7.3,1.3c1,0.9,1.5,2.2,1.3,3.9
				c-0.2,2.4-0.9,3.9-2,4.4C112.8,126.7,112.4,126.7,112.1,126.7z"/>
		</g>
		<g>
			<path class="st10" d="M64.9,104l-0.3-0.1c-0.1,0-7.9-1.8-11.1-2.9c-1.1-0.3-1.9-0.3-2.4,0c-0.5,0.4-0.6,1-0.6,1l0,0.1
				c-0.8,2.4-4.5,1.7-4.7,1.7l0.1-0.6c0,0,3.3,0.6,3.9-1.2c0-0.2,0.2-1,0.9-1.4c0.7-0.5,1.7-0.5,3-0.1c2.8,0.9,9.3,2.4,10.8,2.8
				l0.9-3.4l0.6,0.2L64.9,104z"/>
		</g>
		<g>
			<path class="st10" d="M82.7,108.1c-12.4,0-31.3-6-31.5-6l0.2-0.6c0.2,0.1,23.9,7.5,35.5,5.7c0.1-0.3,0.3-0.9,0.9-1.2
				c0.7-0.4,1.8-0.1,3,0.7c1.4-0.1,16.6-1.3,19.5-1.8l0.1,0.6c-3,0.6-19,1.8-19.6,1.8l-0.1,0l-0.1-0.1c-1.1-0.7-2-0.9-2.5-0.7
				c-0.5,0.2-0.6,0.9-0.6,0.9l0,0.2l-0.2,0C85.8,108,84.3,108.1,82.7,108.1z"/>
		</g>
		<g>
			<path class="st10" d="M112.9,117.8h-0.7v-10.2c-30.8,5.2-59.2-3.2-59.5-3.3l0.2-0.6c0.3,0.1,28.7,8.5,59.6,3.2l0.4-0.1V117.8z"/>
		</g>
		<g>
			<path class="st10" d="M176,129.7l-0.6-0.2c0.1-0.2-0.3-1-0.5-1.7c-0.5-1.4-1.2-3.2-1.1-4.9c0-0.8-0.1-1.3-0.5-1.7
				c-0.5-0.5-1.4-0.4-1.4-0.4l0,0l0,0c-13.4-1.5-56.6,2.4-57,2.4l-0.1-0.7c0.4,0,43.6-3.9,57.1-2.4c0.2,0,1.2-0.1,1.8,0.6
				c0.5,0.5,0.8,1.2,0.7,2.2c-0.1,1.5,0.6,3.3,1.1,4.6C175.9,128.7,176.1,129.3,176,129.7z"/>
		</g>
		<g>
			<path class="st10" d="M154,111.8c-2.9,0-5.6-0.2-7.5-0.6c-7.3-1.7-33.7-3.7-34-3.7l0-0.7c0.3,0,26.7,2,34.1,3.7
				c7.3,1.7,26.6-0.8,26.8-0.9l0.1,0.7C172.9,110.5,162.4,111.8,154,111.8z"/>
		</g>
		<g>
			<path class="st10" d="M114.4,153c-1.4-2.4-1.6-12.2-1.6-12.7l0-0.3l1.7-0.4c0.5-5.4-1.7-13.4-1.7-13.5l0.6-0.2
				c0.1,0.3,2.3,8.4,1.7,14l0,0.2l-1.7,0.4c0,1.6,0.4,10.1,1.5,12.1L114.4,153z"/>
		</g>
		<g>
			<path class="st10" d="M127.5,145.6c-1.9,0-3.5-0.4-5-1.3c-5.8-3.4-6.5-11.9-6.6-12.3l0.7-0.1c0,0.1,0.8,8.6,6.3,11.8
				c3.1,1.8,7.2,1.6,12.1-0.7l7.6-3.7l-1.5-4.5l4.1-2.2l2,1.1l12-6l1.2,1l6.5-2.3l1.9,4.4c0.4,0.1,1.7,0.5,4.2-0.3
				c3.3-1,37-10.2,38.7-10.7c0.4-0.1,1-0.1,1.7-0.1c1.7,0,4.1,0,5.7-1.7c1.5-1.6,2-4.5,1.5-8.6l0.7-0.1c0.5,4.4,0,7.4-1.7,9.2
				c-1.8,2-4.4,2-6.2,2c-0.6,0-1.2,0-1.5,0.1c-1.7,0.4-35.3,9.7-38.7,10.7c-3.3,1-4.7,0.2-4.8,0.2l-0.1-0.1l-1.7-4.1l-6.2,2.2
				l-1.1-0.9l-11.9,5.9l-2-1.1l-3.3,1.8l1.5,4.5l-8.2,4C132.4,145,129.8,145.6,127.5,145.6z"/>
		</g>
		<g>
			<path class="st10" d="M115.4,152.9l-0.8-10l0,0c0-0.1,0.2-1.3,1.1-1.6c0.7-0.3,1.6,0.1,2.6,1c2.5,2.3,9.3,8.3,27.6-1l8-4.1
				l3.7-0.4c1.3-0.4,36.3-11.5,49.5-10.7l0.3,0v9.3l2.2,0.1l2.4,12.3l-0.6,0.1l-2.3-11.8l-2.3-0.1v-9.3c-13.5-0.6-48.6,10.6-49,10.7
				l-0.1,0l-3.7,0.3l-7.8,4.1c-18.7,9.6-25.7,3.3-28.4,1c-0.8-0.7-1.5-1-1.9-0.9c-0.4,0.2-0.7,0.8-0.7,1.1l0.8,9.9L115.4,152.9z"/>
		</g>
		<g>
			<path class="st10" d="M149.1,148l-0.6-0.1c0.4-2-1.8-6.6-1.8-6.6l0.6-0.3C147.4,141.1,149.6,145.8,149.1,148z"/>
		</g>
		<g>
			<path class="st10" d="M468.6,190.7l-1.1-12.8l63.8-1.4v-7.4h-7.1v-5.4c-2.2-0.2-16.2-1.2-24.7-3c-9.2-1.9-30.4-4.8-30.6-4.9
				c-3.5,0-87.5-0.6-90.3-1.8c-2.9-1.2-33.4-2-34.7-1.6c-1.2,0.6-7,1.4-7.2,1.4c-0.5,0-43.7-1.5-55.8-2.8
				c-7.5-0.8-11.5-0.3-15.1,0.1c-2.3,0.3-4.4,0.5-7.1,0.4c-6.1-0.3-8.2-1.5-8.6-1.7c-3.3-0.4-11.3-0.4-19.9-0.4
				c-13.2,0-26.8,0.1-29.1-1.4c-3.7-2.4-20.4-1.7-20.6-1.7c-32.8,0.1-109.6,13.3-110.3,13.4l-0.1-0.6c0.8-0.1,77.6-13.3,110.4-13.4
				c0.7,0,17.1-0.6,20.9,1.8c2.2,1.4,16.3,1.3,28.8,1.3c8.6,0,16.8-0.1,20.1,0.4l0.1,0l0.1,0.1c0,0,1.8,1.4,8.3,1.7
				c2.6,0.1,4.7-0.1,7-0.4c3.6-0.4,7.7-0.9,15.2-0.1c12.1,1.3,55.3,2.7,55.7,2.8c1.6-0.2,6.1-0.9,7-1.4c1.6-0.8,32.8,0.6,35.2,1.5
				c2.2,0.9,59.9,1.5,90.1,1.7c0.3,0,21.5,3,30.7,4.9c9.2,1.9,24.8,3,24.9,3l0.3,0v5.3h7.1v8.7l-0.3,0l-63.4,1.4l1,12.1L468.6,190.7
				z"/>
		</g>
		<g>
			<path class="st10" d="M280.8,133.9l-0.5-0.4c-1-0.8-14.8-1.5-25.9-2.1c-9.8-0.5-18.2-1-19.4-1.5c-1.8-0.7-4.4-0.4-6.6-0.2
				c-1,0.1-2,0.2-2.8,0.2c-1.1,0-1.9-0.1-2.5-0.7c-0.9-0.9-1.2-2.7-1.2-7.5c0-7.1,3.4-8.5,3.5-8.6l0.1,0l18-0.8l0.1,0.1
				c4.1,2.7,13.1,2.6,13.2,2.6h0l24.2,0.2V133.9z M231.9,128.8c1.2,0,2.3,0.1,3.3,0.5c1.2,0.4,9.9,0.9,19.3,1.4
				c13.7,0.8,23.3,1.3,25.7,2.1v-16.9l-23.5-0.2c-0.4,0-9.2,0-13.4-2.7l-17.7,0.7c-0.4,0.2-3,1.7-3,7.9c0,4.4,0.3,6.3,1,7
				c0.4,0.4,1,0.5,2,0.5c0.8,0,1.8-0.1,2.8-0.2C229.4,128.9,230.7,128.8,231.9,128.8z"/>
		</g>
		<g>
			<polygon class="st10" points="313.2,152.7 312.5,152.7 312.5,118.5 280.4,115.9 280.5,115.2 313.2,117.8 			"/>
		</g>
		<g>
			<path class="st10" d="M350.7,152.1h-0.7c0-5.6,2.2-7,2.3-7.1l0.1,0c0,0,3.9-1.1,3.9-3.5c0-2.4-2.4-2.6-2.5-2.6l-31.6,0
				c-0.6,0.1-15.3,1.3-17.9,1.3c-1.2,0-1.7,0.3-1.9,0.5c-0.2,0.2-0.2,0.4-0.2,0.4l0,4.5h-6v-9.9c-2.1,0.1-12.5,0.4-16-1.3
				c-1.8-0.9-10.4-1.1-19.4-1.3c-9.4-0.2-20.1-0.4-26.3-1.5c-12-2-16.8,2.6-16.8,2.7l-0.5-0.5c0.2-0.2,5.1-4.9,17.4-2.9
				c6.2,1,16.8,1.3,26.2,1.5c9.5,0.2,17.7,0.4,19.7,1.3c3.7,1.8,15.9,1.2,16,1.2l0.3,0v9.9h4.6v-3.8l0,0c0,0-0.1-0.5,0.3-0.9
				c0.4-0.5,1.2-0.8,2.4-0.8c2.6,0,17.7-1.3,17.9-1.3l31.6,0c1.1,0.1,3.2,0.9,3.2,3.3c0,2.8-3.8,4-4.3,4.1
				C352.5,145.8,350.7,147.2,350.7,152.1z"/>
		</g>
		<g>
			<path class="st10" d="M352.3,152.1l-0.7-0.1c0-0.3,0.9-7.6,5-7.6c3.8,0,69.5,2.5,70.1,2.5l0,0.7c-0.7,0-66.3-2.5-70.1-2.5
				C353.1,145.1,352.3,152,352.3,152.1z"/>
		</g>
		<g>
			<rect x="387.4" y="146" class="st10" width="0.7" height="8.3"/>
		</g>
		<g>
			<polygon class="st10" points="427.3,146.4 359.3,142.4 359.3,135.4 367.5,135.4 367.5,136 360,136 360,141.8 427.3,145.7 			"/>
		</g>
		<g>
			<path class="st10" d="M351.6,129.7V116h0.7v13c2.6-0.3,18.9-1.9,30.3-0.7l3.5-8.1l0.6,0.3l-3.6,8.5l-0.2,0
				c-12.3-1.4-30.6,0.7-30.8,0.7L351.6,129.7z"/>
		</g>
		<g>
			<polygon class="st10" points="398.4,130.6 384.3,128.8 388.1,120.5 388.7,120.8 385.3,128.2 397.9,129.8 399.3,123.1 400,123.3 
							"/>
		</g>
		<g>
			<path class="st10" d="M413.6,126.9l-12.2-0.8v-7.5l12.7,3.7L413.6,126.9z M402.1,125.5l10.9,0.7l0.4-3.3l-11.3-3.3V125.5z"/>
		</g>
		<g>
			<path class="st10" d="M400,122.3l-12.1-2l-0.5-4.3l12.6,1.7V122.3z M388.5,119.7l10.9,1.8v-3.2l-11.2-1.5L388.5,119.7z"/>
		</g>
		<g>
			<path class="st10" d="M386.1,119.5l-33.9-2v-5.8l33.9,3V119.5z M352.9,116.8l32.6,1.9v-3.6l-32.6-2.8V116.8z"/>
		</g>
		<g>
			<path class="st10" d="M340.1,111.3l-9.3-0.7v-7l9.9,0.6L340.1,111.3z M331.5,110l8.1,0.6l0.5-5.8l-8.5-0.5V110z"/>
		</g>
		<g>
			<path class="st10" d="M351.2,111.9l-9.5-0.7V104l9.5,0.9V111.9z M342.4,110.6l8.1,0.6v-5.7l-8.1-0.8V110.6z"/>
		</g>
		<g>
			<path class="st10" d="M340,115.9h-10.1l0.5-4.7l9.6,1.2V115.9z M330.6,115.2h8.7V113l-8.4-1.1L330.6,115.2z"/>
		</g>
		<g>
			<path class="st10" d="M351.2,117.5l-9.5-0.8v-5.1l9.5,0.7V117.5z M342.4,116.1l8.1,0.7V113l-8.1-0.6V116.1z"/>
		</g>
		<g>
			<path class="st10" d="M299.4,138.8h-0.3v-4.7c0-0.3-0.1-0.5-0.2-0.5c-0.5-0.4-1.7-0.1-2.1,0l-0.4,0.1v-9.2h-15.9v-0.7H297v9
				c0.6-0.1,1.6-0.2,2.3,0.2c0.2,0.2,0.5,0.5,0.5,1.1v4h13.1l29-1.8c1.4-2.7,7.2-6.1,8.3-6.8v-10.1c-12.4-2.8-37-1-37.2-1l-0.1-0.7
				c0.3,0,25.3-1.9,37.7,1l0.3,0.1V130l-0.2,0.1c-0.1,0-7,4-8.2,6.7l-0.1,0.2l-29.4,1.9L299.4,138.8z"/>
		</g>
		<g>
			<path class="st10" d="M307.7,164.6c-34.2,0-44-3.1-44.1-3.1l-33.2-5.2l-0.7-1.4l-17.7-2.4c-0.3-0.1-0.5-0.1-0.8-0.2L71.2,162.9
				l-0.1-0.7c1-0.2,96.2-19.5,140.1-10.6l33.4-2.5v-16.7h0.7v17.3L214,152l16,2.2l0.7,1.4l32.9,5.2c0.3,0.1,27,8.5,148.3-2.7
				c0.1,0,6.1-0.2,6.1-3.1h0.7c0,3.5-6.5,3.8-6.8,3.8C363.7,163.2,330.3,164.6,307.7,164.6z M182.2,149.9
				c-38.9,0-88.8,8.8-105.4,11.9l131.8-10C201,150.4,191.9,149.9,182.2,149.9z"/>
		</g>
		<g>
			<path class="st10" d="M95.2,168.9c-1.3,0-2.9-0.1-4.7-0.2c-5.3-0.5-16.7-0.7-16.8-0.7l0-0.7c0.1,0,11.5,0.3,16.9,0.7
				c5.3,0.4,8.6,0,8.6,0l21.2-4c-0.1-0.5-0.1-1.4,0.5-2.4c0.6-1.1,1.8-1.8,3.4-2.3c4.1-1,6.3,0.9,6.9,1.5c11.5-3.6,71-2.6,75.5-2.5
				l1.3-2l3.7,0.5v-4.8h0.7v5.6l-4.1-0.6l-1.3,2l-0.2,0c-0.6,0-64.7-1.2-75.7,2.5l-0.2,0.1l-0.1-0.2c-0.1-0.1-2.1-2.6-6.3-1.5
				c-1.5,0.4-2.5,1-3,2c-0.6,1.1-0.3,2.2-0.3,2.2l0.1,0.3l-21.9,4.2C99.1,168.7,97.7,168.9,95.2,168.9z"/>
		</g>
		<g>
			<path class="st10" d="M480.3,193.3l-0.1,0l-48.3-3.3l-2.1-4.2l-14.9,1.1l0,0l-87.7-16.3l-0.8-1.9
				c-84.2-3.9-107.2-10.7-109.9-11.5l-2.4,4.7l-0.2,0l-73.1,1.3l-42.1,10.6H76.3V173h22.2l42.1-10.6l73-1.3l2.5-4.8l0.3,0.1
				c0.2,0.1,20.4,7.5,110.1,11.6l0.2,0l0.9,1.9l87.4,16.2l15.2-1.1l2.1,4.3l47.8,3.2l3.4-2.2l0.1,0l104.1,2.2l0.6-1.9l0.6,0.2
				l-0.7,2.4L483.7,191L480.3,193.3z"/>
		</g>
		<g>
			
				<rect x="656.7" y="121.7" transform="matrix(3.601817e-02 -0.9994 0.9994 3.601817e-02 446.0515 837.3029)" class="st10" width="0.7" height="131.5"/>
		</g>
		<g>
			<polygon class="st10" points="726.4,187.8 587.2,180 588.2,171.7 588.8,171.8 587.9,179.4 726.4,187.1 			"/>
		</g>
		<g>
			<path class="st10" d="M185.3,52l-0.7-0.1c0,0,0.2-2,0-2.9c-0.1-0.6-1.3-0.8-1.8-0.8l-5.1,1.1l-1.4-4l0.6-0.2l1.2,3.5l4.6-1l0,0
				c0.2,0,2.2,0.2,2.4,1.3C185.5,49.9,185.3,51.9,185.3,52z"/>
		</g>
		<g>
			<path class="st10" d="M178.5,66l-0.6-0.3c0.2-0.5,0.1-1.1,0-1.7c0-0.3-0.1-0.5-0.1-0.7c0-0.3-0.8-2.2-1.6-4.1
				c-1.2-2.8-2.6-6.3-3.1-8c-0.9-3.2,0.4-5,0.5-5.1l0.5,0.4l-0.3-0.2l0.3,0.2c0,0.1-1.2,1.6-0.4,4.5c0.5,1.7,1.9,5.2,3.1,7.9
				c1.2,3,1.7,4,1.7,4.3c0,0.2,0,0.4,0.1,0.6C178.7,64.6,178.8,65.4,178.5,66z"/>
		</g>
		<g>
			<path class="st10" d="M384.8,90.9h-43.4v-0.7h43.3c0.9-0.2,10.6-3,16-2.9l0,0.7C395.3,87.9,385,90.9,384.8,90.9L384.8,90.9z"/>
		</g>
		<g>
			<path class="st10" d="M384.6,106.2h-0.7V92.1l0.3,0c2.5,0.1,15.2-1.8,15.4-1.9l0.1,0.7c-0.5,0.1-12,1.8-15.1,1.9V106.2z"/>
		</g>
		<g>
			<path class="st10" d="M385.4,106.2c-0.5-3.6-4.1-5.2-4.2-5.2L381,101v-7.7h-17.4v-0.7h18v8c0.8,0.4,3.9,2.1,4.4,5.6L385.4,106.2z
				"/>
		</g>
		<g>
			<path class="st11" d="M492.6,16c-0.1,0-14.1-0.7-21-1.9c-6.8-1.2-26.2-3.5-26.4-3.5c-3.5-0.8-14.6-1.3-14.7-1.3l0-0.7
				c0.5,0,11.3,0.4,14.8,1.3c0.2,0,19.6,2.3,26.4,3.5c6.8,1.1,20.7,1.9,20.9,1.9L492.6,16z"/>
		</g>
		<g>
			<path class="st10" d="M471,26.7h-12.2c-0.3,0-7.8-2.2-12.3-3.5l-0.1,0l-0.1-0.1c-0.1-0.1-3.1-3-0.9-12.9l0.6,0.1
				c-1.9,8.8,0.3,11.8,0.7,12.2c4.6,1.4,11.6,3.4,12,3.5l11.7,0c0.2-1,1.2-4.9,1.5-5.7c0.3-0.6-0.3-4.3-0.7-6.5l0.6-0.1
				c0.2,1,1.1,5.9,0.6,6.9c-0.3,0.7-1.2,4.2-1.6,5.9L471,26.7z"/>
		</g>
		<g>
			
				<rect x="437.7" y="13.6" transform="matrix(8.611175e-02 -0.9963 0.9963 8.611175e-02 378.2267 456.6875)" class="st10" width="0.7" height="17.1"/>
		</g>
		<g>
			
				<rect x="480.8" y="16.9" transform="matrix(8.686811e-02 -0.9962 0.9962 8.686811e-02 412.0988 504.2339)" class="st10" width="0.7" height="20.8"/>
		</g>
		<g>
			<path class="st10" d="M488.4,65.7l-0.7-0.1l3.1-34.1l-62.1-4.8l1.8-20.2l55.2,4.9c0.1,0,2.5,0.5,4-0.7c0.8-0.6,1.2-1.5,1.2-2.7
				l0-0.3h2.7L488.4,65.7z M429.4,26.1l61.5,4.7L493,8.4h-1.3c-0.1,1.3-0.6,2.3-1.5,2.9c-1.8,1.4-4.4,0.8-4.5,0.8l-54.5-4.8
				L429.4,26.1z"/>
		</g>
		<g>
			
				<rect x="457" y="26.5" transform="matrix(8.137254e-02 -0.9967 0.9967 8.137254e-02 362.4955 508.8903)" class="st10" width="0.7" height="62.6"/>
		</g>
		<g>
			<polygon class="st10" points="446.9,75.9 446.2,75.9 446.2,73.6 489.2,75 489.2,65.9 446,62.5 445.3,65.7 444.6,65.6 445.4,61.8 
				489.8,65.3 489.8,75.7 446.9,74.2 			"/>
		</g>
		<g>
			
				<rect x="447.3" y="69.9" transform="matrix(6.541730e-02 -0.9979 0.9979 6.541730e-02 351.5024 515.764)" class="st10" width="7.6" height="0.7"/>
		</g>
		<g>
			
				<rect x="445.1" y="71.2" transform="matrix(0.6792 -0.7339 0.7339 0.6792 89.4346 350.2458)" class="st10" width="0.7" height="3.2"/>
		</g>
		<g>
			
				<rect x="450.1" y="80.2" transform="matrix(3.907083e-02 -0.9992 0.9992 3.907083e-02 358.0873 533.4416)" class="st10" width="12.6" height="0.7"/>
		</g>
		<g>
			<path class="st10" d="M424.2,86h-5.8l0-5.5l4.2-16.9c0-0.2-0.1-0.7,0.2-1.2c0.6-0.9,2.3-1.4,4.9-1.4v0.7c-3.1,0-4.1,0.7-4.4,1.1
				c-0.3,0.4-0.1,0.7-0.1,0.7l0,0.1l-4.3,17v4.7h4.7l6.5-22h15.2v0.7h-14.7L424.2,86z"/>
		</g>
		<g>
			<path class="st10" d="M524.8,83.1c-2.2,0-31.2-0.8-31.5-0.8l-0.1,0l-3.5-1.8l1.5-14.5l35.3,2.7l-0.6,5l1.2,0.2v6.6
				c0,0,0.1,1.1-0.6,1.9C526.1,82.9,525.5,83.1,524.8,83.1z M493.4,81.7c1.6,0,29.2,0.8,31.4,0.8c0.6,0,1-0.2,1.3-0.5
				c0.5-0.6,0.4-1.4,0.4-1.4l0-6l-1.3-0.2l0.6-5l-34-2.6l-1.3,13.4L493.4,81.7z"/>
		</g>
		<g>
			<path class="st10" d="M550.3,83.6l-0.3,0c-0.2,0-18.5-0.4-20.6-0.4c-0.6,0-1.2-0.2-1.5-0.6c-0.7-0.9-0.5-2.3-0.4-2.4l1.7-10.6
				l22.3,1.9L550.3,83.6z M529.7,70.2l-1.6,10c0,0-0.2,1.2,0.3,1.8c0.2,0.3,0.5,0.4,1,0.4c1.9,0,17.9,0.4,20.3,0.4l1.1-10.9
				L529.7,70.2z"/>
		</g>
		<g>
			<path class="st10" d="M548,99.2L527.4,97v-9.3c0-1.5,0.3-2.5,0.9-3c0.5-0.4,0.9-0.4,1-0.4l20.5,0.9L548,99.2z M528.1,96.4
				l19.4,2.1l1.6-12.7l-19.8-0.9c0,0-0.3,0-0.5,0.2c-0.3,0.3-0.7,1-0.7,2.5V96.4z"/>
		</g>
		<g>
			<path class="st10" d="M533.9,124.1H524l2.1-39.2l-36-1.3l-0.3,6.5l-0.7,0l0.3-7.1l37.3,1.4l-2.1,39.2h8.9c0.6-1,4-6.4,8.4-9.4
				l0-3.5l5.4-11.9L548,99l-5.4,11.8v3.6l-0.1,0.1c-4.7,3.1-8.4,9.4-8.4,9.4L533.9,124.1z"/>
		</g>
		<g>
			
				<rect x="525.8" y="96.8" transform="matrix(0.9998 -2.147942e-02 2.147942e-02 0.9998 -1.9652 11.3808)" class="st10" width="6" height="0.7"/>
		</g>
		<g>
			<path class="st10" d="M524.3,124.1h-27.9l1.2-11.2l0.1-0.3c0.3-1.2,1.4-4.9,6.2-4.2c4.6,0.7,6.6-0.2,6.6-0.3l0.1,0l0.1,0h14.5
				l17.2,2.2l-0.1,0.7l-17.1-2.2l-14.4,0c-0.4,0.2-2.5,0.9-6.9,0.3c-4.2-0.6-5.1,2.5-5.4,3.7l-0.1,0.2l-1.1,10.4h27.2V124.1z"/>
		</g>
		<g>
			<path class="st10" d="M497.7,115.1c-0.1-0.1-14.1-6-15.6-6.7c-1.4-0.7-1.5-1.8-1.3-2.3l6.7-15.5l0.1-0.1c0.1-0.1,2.5-1.4,5.3,1.2
				c0.5,0.5,1,1.1,1.6,1.7c2.6,3,6.5,7.5,16.4,9.1l0.1,0c0,0,0.7,0.4,0.7,1.6c0,1-0.7,4.2-0.7,4.4l-0.6-0.1c0,0,0.7-3.3,0.7-4.2
				c0-0.6-0.3-0.9-0.4-1c-10.2-1.7-14.1-6.3-16.7-9.4c-0.6-0.7-1.1-1.2-1.5-1.7c-2.2-2.1-4-1.4-4.5-1.2l-6.6,15.3
				c0,0.1-0.3,0.9,1,1.5c1.5,0.7,15.5,6.7,15.6,6.7L497.7,115.1z"/>
		</g>
		<g>
			<path class="st10" d="M478.4,106.4c-0.4,0-0.8-0.1-1.3-0.2c-2.2-0.6-18.6-10.4-19.8-11.1l-6-1.7c-0.1,1.6-0.4,7.6-0.4,9.3
				c-0.1,2.2-5,2.3-5.6,2.3l-30.9-3.1l1.6-14.5l10.5,0l8.9,0.8l22.2,6.3c0.2,0.1,17.4,10.4,19.6,11c1.9,0.5,2.4-0.4,2.4-0.5
				l6.2-16.5c-2.9-0.4-20-2.7-23.7-2.1c-4.1,0.7-18.4,0.6-19,0.6l0-0.7c0.1,0,14.9,0.1,18.9-0.6c4.1-0.7,23.5,2,24.3,2.1l0.4,0.1
				l-6.5,17.3C480.3,105.4,479.9,106.4,478.4,106.4z M415.2,101.3l30.2,3c1.2,0,4.8-0.3,4.9-1.6c0.1-1.7,0.4-8.1,0.4-9.5l-15.4-4.4
				l-8.8-0.8l-9.8,0L415.2,101.3z"/>
		</g>
		<g>
			<path class="st10" d="M473.1,117.1L450,104.7l1.8-10.2l6.3,0.3l0,0.7l-5.7-0.3l-1.6,9.1l22.1,11.9l3.7-8.3l0,0
				c0,0,0.3-1.4-0.4-2.2l0.5-0.5c1,1,0.6,2.8,0.6,2.9L473.1,117.1z"/>
		</g>
		<g>
			<path class="st10" d="M496.8,124.1l-9.4,0c-0.3-0.1-7.3-2-8.9-3.1c-1.5-1-4.8-1-4.8-1l-0.5,0l4-9.6c0.1-0.1,1.7-2.3,6.1-0.6
				c4.2,1.6,14.3,6.5,14.4,6.6l-0.3,0.6c-0.1,0-10.1-5-14.3-6.6c-3.7-1.4-5.1,0.2-5.3,0.4l-3.6,8.6c1,0,3.4,0.2,4.7,1.1
				c1.5,1,8.1,2.8,8.7,3h9.2V124.1z"/>
		</g>
		<g>
			<path class="st10" d="M471.5,122l-12.9-2.9l-10.8-1.2l0-0.3c0-0.3,0.9-8,3-10.7l0.2-0.2l22.2,11L471.5,122z M448.5,117.3
				l10.2,1.1l12.4,2.8l1.4-3.3l-21.2-10.4C449.5,109.9,448.7,115.8,448.5,117.3z"/>
		</g>
		<g>
			<path class="st10" d="M446.8,117.6l-30.8-3.9v-2.8l-1.5-1.3v-6.4l0.4,0c1.1,0.1,28,1.8,31,2.2c1.2,0.2,2,0.6,2.4,1.3
				c0.4,0.7,0.2,1.3,0.2,1.4L446.8,117.6z M416.7,113.2l29.6,3.7l1.5-9c0-0.1,0.1-0.5-0.1-0.9c-0.3-0.5-1-0.8-2-0.9
				c-2.7-0.4-27.3-2-30.6-2.2v5.4l1.5,1.3V113.2z"/>
		</g>
		<g>
			<polygon class="st10" points="443.4,135 428.9,135 428.9,129.2 421,128.4 420.5,124.1 416,124.1 416,116.3 419.2,116.3 
				422,113.9 422.4,114.4 419.5,117 416.7,117 416.7,123.5 421.1,123.5 421.6,127.8 429.5,128.6 429.5,134.3 442.7,134.3 
				442.7,131.2 446,131.2 446,118.6 446.2,117.2 446.9,117.3 446.7,118.7 446.7,131.9 443.4,131.9 			"/>
		</g>
		<g>
			<path class="st10" d="M541.4,141.4h-2.7l-2.3-2.7c-2.5-0.1-30-1.4-34.3-2.6c-4.4-1.2-26.2-1.7-26.4-1.7c-0.1,0-16.8,0.5-28.7-1.3
				l-0.2,0l-0.7-1.4l0.6-0.3l0.5,1.1c11.8,1.8,28.3,1.2,28.5,1.2c0.9,0,22.2,0.5,26.6,1.7c4.4,1.2,34,2.6,34.3,2.6l0.1,0l2.3,2.6
				h2.3c0-0.2-0.1-0.7-0.2-1.1l-4.1-7.7l-90.6-6.1l0-0.7l91,6.2l4.3,8.1c0.2,0.4,0.5,1.4,0.2,1.8
				C541.7,141.3,541.6,141.4,541.4,141.4z"/>
		</g>
		<g>
			<path class="st10" d="M536.9,131.8c-2-1.7-3.4-7.7-3.5-7.9l0.6-0.1c0,0.1,1.4,6,3.3,7.6L536.9,131.8z"/>
		</g>
		<g>
			<path class="st10" d="M468.2,146.1l-0.7,0l0.6-9.6l0.3,0c14.4,1,42,2.9,43.5,2.7l0.1,0.7c-1.8,0.3-39.1-2.4-43.3-2.7L468.2,146.1
				z"/>
		</g>
		<g>
			<polygon class="st10" points="471.9,156.3 471.8,155.6 484.2,152.6 499.9,151.7 511.8,155.2 513.9,147.5 513.9,143.2 
				514.6,143.2 514.6,147.6 512.2,156 499.8,152.4 484.3,153.2 			"/>
		</g>
		<g>
			<polygon class="st10" points="436,155.2 435.3,155.2 435.3,140.8 439.3,139.7 462.3,140.7 462.3,146.2 464.3,146.2 464.3,146.9 
				461.6,146.9 461.6,141.4 439.4,140.4 436,141.3 			"/>
		</g>
		<g>
			<polygon class="st10" points="522.1,172 521.4,172 521.4,170 478.5,159.6 459.9,157.5 445.2,157.5 445.2,156.8 459.9,156.8 
				478.6,158.9 522.1,169.5 			"/>
		</g>
		<g>
			<polygon class="st10" points="531.6,172.3 495.2,172.3 451,164.9 451,161.9 500.3,168 500.2,168.7 451.7,162.7 451.7,164.3 
				495.2,171.7 531.6,171.7 			"/>
		</g>
		<g>
			<polygon class="st10" points="467.7,164.5 464.9,162.1 447.8,162.1 447.8,161.5 465.1,161.5 468.1,164 			"/>
		</g>
		<g>
			<rect x="512.9" y="172" class="st10" width="0.7" height="5.2"/>
		</g>
		<g>
			<path class="st10" d="M478.8,189.7l-44.6-2.9v-4.5l-14-0.3v-3.8h35.1l0.1,0.2c0,0.1,2.9,5.7,12.6,6.7c7,0.7,9.6,1.3,10.5,1.7
				l1.2-5.3l0.6,0.1L479,187l58.5,2.1v-7.5h-6.2v-1.8l-57.3-1.3l0-0.7l58,1.3v1.8h6.2v8.9l-59.2-2.1L478.8,189.7z M434.9,186.2
				l43.3,2.8l0.1-1.6c-0.4-0.2-2.3-0.9-10.4-1.7c-9.2-0.9-12.5-5.8-13-6.8h-34v2.5l14,0.3V186.2z"/>
		</g>
		<g>
			<polygon class="st10" points="448.6,173.2 419.3,173.2 419.3,169.7 420,169.7 420,172.6 447.9,172.6 447.9,171 452.4,171 
				452.4,171.7 448.6,171.7 			"/>
		</g>
		<g>
			<path class="st10" d="M531.6,177.1c-0.6,0-64-1.6-66.5-1.6c-2.5,0-11.5-1.5-11.8-1.6l0.1-0.6c0.1,0,9.3,1.6,11.7,1.6
				c2.5,0,65.8,1.5,66.5,1.6L531.6,177.1z"/>
		</g>
		<g>
			<path class="st10" d="M410.8,181.9l-0.2-0.1c-4.8-2.4-36.2-5.6-36.5-5.6l-44.5-7.5v-2.4h1.3v-2.3l0.3,0c0.7,0,65.6,0.3,87.2-4.7
				l0,0l0,0c0.1,0,6.5,0.3,15.5,1c8.2,0.6,10.5,5.5,10.9,6.7l5.8,0.5l-0.1,0.7l-6.3-0.5l-0.1-0.2c-0.1-0.2-1.7-5.8-10.4-6.4
				c-8.6-0.6-14.8-0.9-15.4-1c-20.9,4.8-81.9,4.7-86.9,4.7v2.3h-1.3v1.2l43.9,7.4c1.3,0.1,31,3.2,36.5,5.6l5.1-4.2l-2.9-1.7
				l-12.5-0.6l-26.1-2.3l2.2-2l0.1,0l40.5,1.4l3.7-5.9l0.6,0.4l-3.9,6.2l-0.2,0l-40.6-1.4l-0.9,0.8l24.6,2.2l12.6,0.6l3.8,2.3
				L410.8,181.9z"/>
		</g>
		<g class="st12">
			<g>
				<path class="st10" d="M331.2,166.6c0,0,36.9,6.7,43.9,5.4"/>
			</g>
		</g>
		<g>
			
				<rect x="329.9" y="145.7" transform="matrix(3.614450e-02 -0.9993 0.9993 3.614450e-02 179.3034 477.9587)" class="st10" width="15.1" height="0.7"/>
		</g>
		<g>
			<g>
				<g>
					<g>
						<polygon class="st13" points="423.9,58.4 418.7,65.6 415,57.5 417.8,57.8 418.6,49.6 420.3,49.7 421.9,49.9 421.1,58.2 						
							"/>
					</g>
				</g>
			</g>
		</g>
		<g>
			<g>
				<g>
					<polygon class="st13" points="433.5,58.7 430.8,58.4 429.8,66.6 426.5,66.2 427.5,58 424.7,57.7 430,50.5 					"/>
				</g>
			</g>
		</g>
		<g>
			<g>
				<g>
					<g>
						<polygon class="st13" points="510.8,37.9 511.1,35.1 502.8,34.3 503,32.6 503.2,31 511.4,31.8 511.7,29 518.9,34.2 						"/>
					</g>
				</g>
			</g>
		</g>
		<g>
			<g>
				<g>
					<g>
						<g>
							<polygon class="st13" points="519.9,23.1 519.7,24.8 519.5,26.4 511.3,25.4 510.9,28.2 503.8,22.9 512,19.4 511.6,22.2 
															"/>
						</g>
					</g>
				</g>
			</g>
		</g>
		<g>
			<g>
				<g>
					<g>
						<polygon class="st13" points="573.5,84.5 573.7,81.8 565.5,80.9 565.8,77.6 574.1,78.5 574.3,75.7 581.5,80.9 						"/>
					</g>
				</g>
			</g>
		</g>
		<g>
			<g>
				<g>
					<g>
						<g>
							<polygon class="st13" points="582.5,69.8 582.3,71.4 582.1,73 573.9,72.1 573.6,74.9 566.5,69.6 574.6,66 574.3,68.8 							
								"/>
						</g>
					</g>
				</g>
			</g>
		</g>
		<g>
			<g>
				<g>
					<g>
						<polygon class="st13" points="745,196.1 745.3,193.3 737.1,192.5 737.2,190.9 737.4,189.2 745.6,190.1 745.9,187.3 
							753.1,192.5 						"/>
					</g>
				</g>
			</g>
		</g>
		<g>
			<g>
				<g>
					<g>
						<g>
							<polygon class="st13" points="754.1,181.4 753.9,183 753.7,184.6 745.5,183.7 745.2,186.5 738,181.2 738,181.2 746.2,177.6 
								745.9,180.4 							"/>
						</g>
					</g>
				</g>
			</g>
		</g>
		<g>
			<g>
				<g>
					<g>
						<polygon class="st13" points="160.3,23.1 158.8,23.7 157.2,24.3 154.4,16.5 151.8,17.5 153.2,8.7 160.1,14.4 157.5,15.4 
													"/>
					</g>
				</g>
			</g>
		</g>
		<g>
			<g>
				<g>
					<g>
						<polygon class="st13" points="151.3,18.5 149.7,27.2 149.7,27.3 143,21.5 145.6,20.6 142.8,12.7 144.4,12.2 145.9,11.6 
							148.7,19.5 						"/>
					</g>
				</g>
			</g>
		</g>
		<g>
			<g>
				<polygon class="st13" points="28,178.6 28.2,175.8 20,175 20.2,173.3 20.3,171.7 28.6,172.5 28.9,169.7 36.1,174.9 				"/>
			</g>
		</g>
		<g>
			<g>
				<g>
					<g>
						<polygon class="st13" points="37,163.8 36.8,165.4 36.6,167.1 28.4,166.1 28.1,168.9 21,163.6 29.1,160.1 28.8,162.8 						
							"/>
					</g>
				</g>
			</g>
		</g>
		<g>
			<polygon class="st10" points="728.2,185.1 727.6,185 728,180.5 549.1,168.7 549.1,164.6 549.8,164.6 549.8,168.1 728.7,179.9 			
				"/>
		</g>
		<g>
			<path d="M469.1,195.2c0,0,0.5,3.6-2.6-20.1c-3.1-23.4-9.9-19.7-10-19.8c-29.4-48.9-83.5-52-105.4-51.1c-0.6,0-1,0-1.2,0
				c-4,0-49.7-2.9-60.5-4.5c-10.4-1.5-87.8-1.4-114.2-0.2c-28.1,1.3-72.2-5-72.6-5c-2.7-0.4-27.9-4.6-28.1-4.7l-0.4-0.1l1.6-4.8
				C74,84.3,62.4,83,55.1,82.3l0.1-0.7c0.1,0,5.2,0.5,10.3,1.1c10.5,1.2,10.7,1.7,10.8,2l0,0.1l-1.5,4.4c3.2,0.5,25.3,4.2,27.7,4.6
				c0.4,0.1,44.5,6.3,72.5,5c26.5-1.3,103.9-1.3,114.3,0.2c10.7,1.6,56.4,4.5,60.4,4.5c0.2,0,0.6,0,1.2,0c22-0.9,76.5,2.2,106,51.4
				c0.1,0.2,7-3.5,10.1,20.1c3.1,23.7,2.6,20.1,2.6,20.1L469.1,195.2z"/>
		</g>
		<g>
			<path d="M457.3,195.2l-2.9-18.2c-19-47.4-43-51.8-73.5-57.4c-31.8-5.9-158.7-9.9-160-10c-39.8,4.6-116.8-4.7-149.7-8.8
				c-7.4-0.9-12.3-1.5-13.4-1.5c-5.4-0.1-16.1-5-17.1-6.5c-0.6,0.2-1.5,0.6-2.5,0.9l-0.2-0.6c3.2-1.3,3.2-1.2,3.4-0.9
				c0.1,0.1,0,0.3,0,0.4c1.2,1.2,11.1,6,16.5,6c1.2,0,6.1,0.6,13.5,1.5c32.9,4,109.8,13.4,149.6,8.7c1.3,0,128.3,4.1,160.2,10
				c30.7,5.7,54.9,10.1,74,57.9l0,0.1l2.9,18.2L457.3,195.2z"/>
		</g>
		<g>
			<circle class="st13" cx="149.8" cy="60.7" r="6.7"/>
			<g>
				<path class="st14" d="M150.2,65.3v-2h-3.9v-1.6l4.4-5.7h1.2v5.7h1.2v1.6H152v2H150.2z M148.1,61.7h2.3v-3L148.1,61.7z"/>
			</g>
		</g>
		<g>
			<circle class="st13" cx="126.4" cy="138.1" r="6.7"/>
			<g>
				<path class="st14" d="M126.6,136.7c0.4,0,0.8,0.1,1.2,0.2c0.4,0.1,0.7,0.3,1,0.6c0.3,0.3,0.5,0.6,0.6,0.9
					c0.2,0.4,0.2,0.8,0.2,1.2c0,0.5-0.1,0.9-0.3,1.3c-0.2,0.4-0.4,0.7-0.7,1c-0.3,0.3-0.7,0.5-1.1,0.6c-0.4,0.2-0.9,0.2-1.4,0.2
					c-0.7,0-1.3-0.1-1.8-0.4c-0.5-0.3-1-0.7-1.2-1.2l1-1.1c0.2,0.3,0.6,0.6,0.9,0.8c0.4,0.2,0.8,0.3,1.1,0.3c0.5,0,0.9-0.1,1.2-0.4
					c0.3-0.3,0.5-0.7,0.5-1.1c0-0.5-0.1-0.8-0.4-1.1c-0.3-0.3-0.6-0.4-1.1-0.4c-0.3,0-0.6,0.1-0.8,0.2c-0.3,0.1-0.5,0.3-0.6,0.5
					h-1.5c0,0,0-0.1,0.1-0.3s0.1-0.4,0.1-0.7c0.1-0.3,0.1-0.6,0.2-0.9s0.1-0.7,0.2-1c0.2-0.8,0.3-1.7,0.5-2.7h4.6v1.6h-3.3l-0.4,2.1
					c0.1-0.1,0.3-0.2,0.5-0.3C126.1,136.7,126.3,136.7,126.6,136.7z"/>
			</g>
		</g>
		<g>
			<circle class="st13" cx="194.1" cy="138.5" r="6.7"/>
			<g>
				<path class="st14" d="M197.5,140c0,0.5-0.1,0.9-0.3,1.3c-0.2,0.4-0.4,0.7-0.7,1c-0.3,0.3-0.7,0.5-1.1,0.7
					c-0.4,0.2-0.9,0.3-1.4,0.3c-0.5,0-1-0.1-1.4-0.3c-0.4-0.2-0.8-0.5-1.1-0.8c-0.3-0.4-0.5-0.8-0.7-1.4c-0.2-0.5-0.2-1.1-0.2-1.8
					c0-0.9,0.1-1.6,0.3-2.3c0.2-0.7,0.4-1.2,0.7-1.6c0.3-0.4,0.7-0.8,1.1-1c0.4-0.2,0.9-0.3,1.5-0.3c0.6,0,1.1,0.1,1.6,0.4
					c0.5,0.3,0.9,0.6,1.3,1.1l-1,1.1c-0.2-0.3-0.5-0.6-0.8-0.8c-0.3-0.2-0.7-0.3-1.1-0.3c-0.6,0-1.1,0.2-1.4,0.7
					c-0.4,0.5-0.5,1.1-0.6,2c0.2-0.3,0.4-0.6,0.8-0.8c0.3-0.2,0.7-0.3,1.2-0.3c0.5,0,0.9,0.1,1.3,0.2c0.4,0.2,0.7,0.4,1,0.7
					c0.3,0.3,0.5,0.6,0.7,1C197.4,139.2,197.5,139.6,197.5,140z M194.1,141.8c0.2,0,0.4,0,0.7-0.1c0.2-0.1,0.4-0.2,0.6-0.4
					c0.2-0.2,0.3-0.4,0.4-0.6c0.1-0.2,0.1-0.4,0.1-0.7c0-0.2,0-0.5-0.1-0.7c-0.1-0.2-0.2-0.4-0.4-0.5c-0.2-0.2-0.3-0.3-0.5-0.4
					c-0.2-0.1-0.4-0.1-0.7-0.1c-0.2,0-0.5,0-0.7,0.1c-0.2,0.1-0.4,0.2-0.6,0.4c-0.2,0.2-0.3,0.3-0.4,0.5c-0.1,0.2-0.1,0.4-0.1,0.7
					c0,0.2,0,0.5,0.1,0.7s0.2,0.4,0.4,0.6c0.2,0.2,0.3,0.3,0.5,0.4C193.7,141.8,193.9,141.8,194.1,141.8z"/>
			</g>
		</g>
		<g>
			<circle class="st13" cx="333.9" cy="87.8" r="6.7"/>
			<g>
				<path class="st14" d="M335.3,87.5c0.5,0.1,1,0.4,1.3,0.8c0.3,0.4,0.5,0.9,0.5,1.6c0,0.4-0.1,0.8-0.2,1.1
					c-0.2,0.3-0.4,0.6-0.7,0.9c-0.3,0.2-0.7,0.4-1.1,0.5c-0.4,0.1-0.9,0.2-1.4,0.2c-0.7,0-1.3-0.1-1.8-0.3c-0.5-0.2-0.9-0.5-1.3-0.9
					l1-1.3c0.2,0.3,0.5,0.5,0.8,0.7c0.3,0.2,0.7,0.2,1.2,0.2c0.5,0,0.9-0.1,1.2-0.3s0.4-0.5,0.4-1c0-0.5-0.2-0.8-0.5-1.1
					c-0.3-0.2-0.8-0.4-1.5-0.4H333v-1.3h0.4c0.5,0,1-0.1,1.3-0.4c0.3-0.2,0.4-0.6,0.4-0.9c0-0.4-0.1-0.6-0.4-0.8
					c-0.2-0.2-0.6-0.3-1-0.3c-0.4,0-0.8,0.1-1.1,0.3c-0.3,0.2-0.6,0.4-0.8,0.8l-1.1-1.2c0.1-0.2,0.3-0.4,0.5-0.5
					c0.2-0.2,0.5-0.3,0.7-0.4c0.3-0.1,0.6-0.2,0.9-0.3c0.3-0.1,0.7-0.1,1-0.1c0.4,0,0.9,0.1,1.2,0.2c0.4,0.1,0.7,0.3,1,0.5
					c0.3,0.2,0.5,0.4,0.6,0.7c0.1,0.3,0.2,0.6,0.2,1c0,0.3,0,0.5-0.1,0.8c-0.1,0.2-0.2,0.5-0.3,0.6c-0.1,0.2-0.3,0.4-0.5,0.5
					C335.8,87.3,335.6,87.4,335.3,87.5z"/>
			</g>
		</g>
		<g>
			<circle class="st13" cx="467.3" cy="44.8" r="6.7"/>
			<g>
				<path class="st14" d="M464.1,48.6c0-0.4,0-0.8,0.1-1.1s0.2-0.6,0.3-0.9c0.2-0.3,0.4-0.5,0.6-0.8c0.3-0.2,0.6-0.5,1-0.7
					c0.4-0.2,0.7-0.4,1-0.5c0.3-0.1,0.5-0.3,0.7-0.4c0.2-0.1,0.3-0.2,0.4-0.4c0.1-0.1,0.1-0.3,0.1-0.4c0-0.3-0.1-0.5-0.3-0.7
					c-0.2-0.2-0.5-0.3-0.9-0.3c-0.2,0-0.4,0-0.6,0.1c-0.2,0.1-0.3,0.1-0.5,0.2c-0.2,0.1-0.3,0.2-0.4,0.3s-0.2,0.2-0.3,0.4l-1.1-1.3
					c0.1-0.1,0.3-0.3,0.5-0.4c0.2-0.1,0.5-0.3,0.7-0.4c0.3-0.1,0.6-0.2,0.9-0.3c0.3-0.1,0.7-0.1,1.1-0.1c0.4,0,0.8,0.1,1.2,0.2
					c0.4,0.1,0.6,0.3,0.9,0.5c0.2,0.2,0.4,0.4,0.6,0.7c0.1,0.3,0.2,0.6,0.2,0.9c0,0.3-0.1,0.6-0.2,0.8c-0.1,0.2-0.3,0.4-0.4,0.6
					c-0.2,0.2-0.4,0.3-0.6,0.5c-0.2,0.1-0.4,0.3-0.6,0.4c-0.2,0.1-0.3,0.2-0.5,0.3c-0.2,0.1-0.4,0.2-0.6,0.4
					c-0.2,0.1-0.4,0.3-0.5,0.4c-0.2,0.1-0.3,0.3-0.4,0.4h4v1.6H464.1z"/>
			</g>
		</g>
		<g>
			<circle class="st13" cx="502.3" cy="99.8" r="6.7"/>
			<g>
				<path class="st14" d="M505.1,101.9v1.6h-5.4v-1.6h1.9v-4c-0.1,0.1-0.2,0.2-0.4,0.3c-0.2,0.1-0.4,0.2-0.6,0.3
					c-0.2,0.1-0.4,0.2-0.6,0.2c-0.2,0.1-0.4,0.1-0.6,0.1v-1.6c0.2,0,0.4-0.1,0.6-0.2c0.2-0.1,0.5-0.2,0.7-0.4
					c0.2-0.1,0.4-0.3,0.6-0.4c0.2-0.1,0.3-0.2,0.3-0.3h1.8v5.9H505.1z"/>
			</g>
		</g>
		<g>
			<circle class="st13" cx="494.1" cy="161.5" r="6.7"/>
			<g>
				<path class="st14" d="M490.6,159.9c0-0.5,0.1-0.9,0.3-1.3c0.2-0.4,0.4-0.7,0.7-1c0.3-0.3,0.7-0.5,1.1-0.7
					c0.4-0.2,0.9-0.3,1.4-0.3c0.5,0,1,0.1,1.4,0.3c0.4,0.2,0.8,0.5,1.1,0.8c0.3,0.4,0.5,0.8,0.7,1.4c0.2,0.5,0.2,1.1,0.2,1.8
					c0,0.9-0.1,1.6-0.3,2.3c-0.2,0.7-0.4,1.2-0.7,1.6c-0.3,0.4-0.7,0.8-1.1,1c-0.4,0.2-0.9,0.3-1.5,0.3c-0.6,0-1.1-0.1-1.6-0.4
					c-0.5-0.3-0.9-0.6-1.3-1.1l1-1.1c0.2,0.3,0.5,0.6,0.8,0.8c0.3,0.2,0.7,0.3,1.1,0.3c0.6,0,1.1-0.2,1.4-0.7c0.3-0.5,0.5-1.1,0.5-2
					c-0.2,0.3-0.4,0.6-0.8,0.8c-0.3,0.2-0.7,0.3-1.2,0.3c-0.5,0-0.9-0.1-1.3-0.2c-0.4-0.2-0.7-0.4-1-0.7c-0.3-0.3-0.5-0.6-0.7-1
					C490.7,160.8,490.6,160.4,490.6,159.9z M494.1,158.2c-0.2,0-0.5,0-0.7,0.1c-0.2,0.1-0.4,0.2-0.5,0.4c-0.2,0.2-0.3,0.4-0.4,0.6
					c-0.1,0.2-0.1,0.4-0.1,0.7s0,0.5,0.1,0.7c0.1,0.2,0.2,0.4,0.4,0.5c0.2,0.2,0.3,0.3,0.5,0.4c0.2,0.1,0.4,0.1,0.7,0.1
					c0.2,0,0.5,0,0.7-0.1c0.2-0.1,0.4-0.2,0.5-0.4c0.2-0.2,0.3-0.3,0.4-0.5c0.1-0.2,0.1-0.4,0.1-0.7s0-0.5-0.1-0.7s-0.2-0.4-0.4-0.6
					c-0.2-0.2-0.3-0.3-0.5-0.4C494.5,158.2,494.3,158.2,494.1,158.2z"/>
			</g>
		</g>
		<g>
			<circle class="st13" cx="405.7" cy="173.4" r="6.7"/>
			<g>
				<path class="st14" d="M409.1,175.2c0,0.4-0.1,0.8-0.3,1.2c-0.2,0.4-0.4,0.7-0.7,0.9c-0.3,0.3-0.7,0.5-1.1,0.6
					c-0.4,0.1-0.9,0.2-1.3,0.2c-0.5,0-0.9-0.1-1.3-0.2c-0.4-0.1-0.8-0.3-1.1-0.6s-0.5-0.6-0.7-0.9c-0.2-0.4-0.3-0.8-0.3-1.2
					c0-0.3,0-0.5,0.1-0.7c0.1-0.2,0.2-0.4,0.3-0.6c0.1-0.2,0.3-0.3,0.5-0.5c0.2-0.1,0.3-0.3,0.5-0.3c-0.3-0.2-0.6-0.4-0.8-0.7
					c-0.2-0.3-0.3-0.7-0.3-1c0-0.4,0.1-0.8,0.3-1.1c0.2-0.3,0.4-0.6,0.7-0.8c0.3-0.2,0.6-0.4,1-0.5c0.4-0.1,0.7-0.2,1.1-0.2
					c0.4,0,0.7,0.1,1.1,0.2c0.4,0.1,0.7,0.3,1,0.5c0.3,0.2,0.5,0.5,0.7,0.8c0.2,0.3,0.3,0.7,0.3,1.1c0,0.2,0,0.4-0.1,0.5
					c-0.1,0.2-0.1,0.3-0.3,0.5c-0.1,0.2-0.2,0.3-0.4,0.4c-0.1,0.1-0.3,0.2-0.5,0.3c0.2,0.1,0.4,0.2,0.6,0.4c0.2,0.1,0.3,0.3,0.5,0.5
					c0.1,0.2,0.3,0.4,0.3,0.6C409.1,174.7,409.1,174.9,409.1,175.2z M407.3,175.1c0-0.2,0-0.4-0.1-0.6c-0.1-0.2-0.2-0.3-0.4-0.4
					c-0.2-0.1-0.3-0.2-0.5-0.3c-0.2-0.1-0.4-0.1-0.6-0.1c-0.2,0-0.4,0-0.6,0.1c-0.2,0.1-0.4,0.2-0.5,0.3c-0.1,0.1-0.3,0.3-0.3,0.4
					c-0.1,0.2-0.1,0.4-0.1,0.6c0,0.2,0,0.4,0.1,0.6c0.1,0.2,0.2,0.3,0.4,0.4s0.3,0.2,0.5,0.3c0.2,0.1,0.4,0.1,0.6,0.1
					c0.2,0,0.4,0,0.6-0.1c0.2-0.1,0.4-0.2,0.5-0.3c0.1-0.1,0.3-0.3,0.4-0.4C407.3,175.5,407.3,175.3,407.3,175.1z M404.4,171.3
					c0,0.2,0,0.3,0.1,0.5c0.1,0.1,0.2,0.3,0.3,0.3c0.1,0.1,0.3,0.2,0.4,0.2c0.2,0,0.3,0.1,0.5,0.1c0.1,0,0.3,0,0.5-0.1
					c0.2,0,0.3-0.1,0.4-0.2c0.1-0.1,0.2-0.2,0.3-0.3c0.1-0.1,0.1-0.3,0.1-0.5c0-0.3-0.1-0.6-0.4-0.8c-0.3-0.2-0.6-0.3-0.9-0.3
					c-0.4,0-0.7,0.1-0.9,0.3C404.5,170.7,404.4,170.9,404.4,171.3z"/>
			</g>
		</g>
		<g>
			<circle class="st13" cx="568.2" cy="181.2" r="6.7"/>
			<g>
				<path class="st14" d="M567.6,182.9v1.2h-3.9v-1.2h1.4v-2.9c-0.1,0.1-0.2,0.2-0.3,0.2c-0.1,0.1-0.3,0.2-0.4,0.2
					c-0.1,0.1-0.3,0.1-0.5,0.2c-0.2,0-0.3,0.1-0.4,0.1v-1.2c0.1,0,0.3,0,0.4-0.1s0.3-0.2,0.5-0.3c0.2-0.1,0.3-0.2,0.4-0.3
					c0.1-0.1,0.2-0.2,0.2-0.2h1.3v4.4H567.6z"/>
				<path class="st14" d="M573.3,181.2c0,0.4-0.1,0.8-0.2,1.2c-0.1,0.4-0.3,0.7-0.5,0.9c-0.2,0.3-0.5,0.5-0.8,0.6
					c-0.3,0.1-0.6,0.2-1,0.2c-0.4,0-0.7-0.1-1-0.2c-0.3-0.1-0.6-0.3-0.8-0.6c-0.2-0.3-0.4-0.6-0.5-0.9c-0.1-0.4-0.2-0.8-0.2-1.2
					c0-0.4,0.1-0.8,0.2-1.2c0.1-0.4,0.3-0.7,0.5-0.9c0.2-0.3,0.5-0.5,0.8-0.6c0.3-0.1,0.6-0.2,1-0.2c0.4,0,0.7,0.1,1,0.2
					c0.3,0.1,0.6,0.4,0.8,0.6c0.2,0.3,0.4,0.6,0.5,0.9C573.2,180.4,573.3,180.8,573.3,181.2z M571.9,181.2c0-0.3,0-0.5-0.1-0.7
					c-0.1-0.2-0.1-0.4-0.2-0.6c-0.1-0.2-0.2-0.3-0.4-0.4c-0.1-0.1-0.3-0.1-0.5-0.1c-0.2,0-0.3,0-0.5,0.1c-0.1,0.1-0.3,0.2-0.4,0.4
					c-0.1,0.2-0.2,0.3-0.2,0.6c-0.1,0.2-0.1,0.5-0.1,0.7c0,0.3,0,0.5,0.1,0.7c0.1,0.2,0.1,0.4,0.2,0.6c0.1,0.2,0.2,0.3,0.4,0.4
					c0.1,0.1,0.3,0.1,0.5,0.1c0.2,0,0.3,0,0.5-0.1c0.1-0.1,0.3-0.2,0.4-0.4c0.1-0.2,0.2-0.3,0.2-0.6
					C571.9,181.7,571.9,181.5,571.9,181.2z"/>
			</g>
		</g>
	</g>
	<circle class="st13" cx="374.2" cy="133.2" r="6.7"/>
	<g>
		<path class="st14" d="M375,131.4h-3.8V130h6.4l-4.2,8.4h-1.8L375,131.4z"/>
	</g>
</g>
</svg>
